<mxfile host="drawio.min2k.com" agent="Mozilla/5.0 (Macintosh; Intel Mac OS X 10_15_7) AppleWebKit/537.36 (KHTML, like Gecko) Chrome/136.0.0.0 Safari/537.36" version="@DRAWIO-VERSION@">
  <diagram id="jfG8mA3OhdTBD7yKZ9QS" name="第 1 页">
    <mxGraphModel dx="1434" dy="819" grid="1" gridSize="10" guides="1" tooltips="1" connect="1" arrows="1" fold="1" page="1" pageScale="1" pageWidth="827" pageHeight="1169" math="0" shadow="0">
      <root>
        <mxCell id="0" />
        <mxCell id="1" parent="0" />
        <mxCell id="98cig-gm82J87M5kQn7e-1" value="" style="rounded=0;whiteSpace=wrap;html=1;" vertex="1" parent="1">
          <mxGeometry x="20" y="640" width="720" height="160" as="geometry" />
        </mxCell>
        <mxCell id="98cig-gm82J87M5kQn7e-2" style="edgeStyle=orthogonalEdgeStyle;curved=1;rounded=0;orthogonalLoop=1;jettySize=auto;html=1;exitX=0.5;exitY=1;exitDx=0;exitDy=0;entryX=0.5;entryY=0;entryDx=0;entryDy=0;" edge="1" parent="1" source="98cig-gm82J87M5kQn7e-4" target="98cig-gm82J87M5kQn7e-8">
          <mxGeometry relative="1" as="geometry" />
        </mxCell>
        <mxCell id="98cig-gm82J87M5kQn7e-3" value="passing" style="edgeLabel;html=1;align=center;verticalAlign=middle;resizable=0;points=[];" vertex="1" connectable="0" parent="98cig-gm82J87M5kQn7e-2">
          <mxGeometry x="-0.2" y="1" relative="1" as="geometry">
            <mxPoint as="offset" />
          </mxGeometry>
        </mxCell>
        <mxCell id="98cig-gm82J87M5kQn7e-4" value="" style="rounded=0;whiteSpace=wrap;html=1;" vertex="1" parent="1">
          <mxGeometry x="20" y="240" width="720" height="160" as="geometry" />
        </mxCell>
        <mxCell id="98cig-gm82J87M5kQn7e-5" style="edgeStyle=orthogonalEdgeStyle;curved=1;rounded=0;orthogonalLoop=1;jettySize=auto;html=1;exitX=0.5;exitY=1;exitDx=0;exitDy=0;entryX=0.5;entryY=0;entryDx=0;entryDy=0;" edge="1" parent="1" source="98cig-gm82J87M5kQn7e-8" target="98cig-gm82J87M5kQn7e-1">
          <mxGeometry relative="1" as="geometry" />
        </mxCell>
        <mxCell id="98cig-gm82J87M5kQn7e-6" value="complete" style="edgeLabel;html=1;align=center;verticalAlign=middle;resizable=0;points=[];" vertex="1" connectable="0" parent="98cig-gm82J87M5kQn7e-5">
          <mxGeometry x="-0.25" relative="1" as="geometry">
            <mxPoint as="offset" />
          </mxGeometry>
        </mxCell>
        <mxCell id="98cig-gm82J87M5kQn7e-7" style="edgeStyle=orthogonalEdgeStyle;shape=flexArrow;curved=1;rounded=0;orthogonalLoop=1;jettySize=auto;html=1;exitX=1;exitY=0.5;exitDx=0;exitDy=0;entryX=0;entryY=0.5;entryDx=0;entryDy=0;" edge="1" parent="1" source="98cig-gm82J87M5kQn7e-8" target="98cig-gm82J87M5kQn7e-55">
          <mxGeometry relative="1" as="geometry" />
        </mxCell>
        <mxCell id="98cig-gm82J87M5kQn7e-8" value="" style="rounded=0;whiteSpace=wrap;html=1;" vertex="1" parent="1">
          <mxGeometry x="20" y="440" width="720" height="160" as="geometry" />
        </mxCell>
        <mxCell id="98cig-gm82J87M5kQn7e-9" style="edgeStyle=orthogonalEdgeStyle;curved=1;rounded=0;orthogonalLoop=1;jettySize=auto;html=1;exitX=0.5;exitY=1;exitDx=0;exitDy=0;entryX=0.5;entryY=0;entryDx=0;entryDy=0;" edge="1" parent="1" source="98cig-gm82J87M5kQn7e-11" target="98cig-gm82J87M5kQn7e-4">
          <mxGeometry relative="1" as="geometry" />
        </mxCell>
        <mxCell id="98cig-gm82J87M5kQn7e-10" value="complete" style="edgeLabel;html=1;align=center;verticalAlign=middle;resizable=0;points=[];" vertex="1" connectable="0" parent="98cig-gm82J87M5kQn7e-9">
          <mxGeometry x="-0.3" y="1" relative="1" as="geometry">
            <mxPoint as="offset" />
          </mxGeometry>
        </mxCell>
        <mxCell id="98cig-gm82J87M5kQn7e-11" value="" style="rounded=0;whiteSpace=wrap;html=1;" vertex="1" parent="1">
          <mxGeometry x="20" y="100" width="720" height="100" as="geometry" />
        </mxCell>
        <mxCell id="98cig-gm82J87M5kQn7e-12" style="edgeStyle=orthogonalEdgeStyle;curved=1;rounded=0;orthogonalLoop=1;jettySize=auto;html=1;exitX=1;exitY=0.5;exitDx=0;exitDy=0;entryX=0;entryY=0.5;entryDx=0;entryDy=0;" edge="1" parent="1" source="98cig-gm82J87M5kQn7e-13" target="98cig-gm82J87M5kQn7e-15">
          <mxGeometry relative="1" as="geometry" />
        </mxCell>
        <mxCell id="98cig-gm82J87M5kQn7e-13" value="select testing scenario" style="rounded=0;whiteSpace=wrap;html=1;" vertex="1" parent="1">
          <mxGeometry x="120" y="140" width="100" height="40" as="geometry" />
        </mxCell>
        <mxCell id="98cig-gm82J87M5kQn7e-14" style="edgeStyle=orthogonalEdgeStyle;curved=1;rounded=0;orthogonalLoop=1;jettySize=auto;html=1;exitX=1;exitY=0.5;exitDx=0;exitDy=0;entryX=0;entryY=0.5;entryDx=0;entryDy=0;" edge="1" parent="1" source="98cig-gm82J87M5kQn7e-15" target="98cig-gm82J87M5kQn7e-17">
          <mxGeometry relative="1" as="geometry" />
        </mxCell>
        <mxCell id="98cig-gm82J87M5kQn7e-15" value="Testing template Parameter Configuration" style="rounded=0;whiteSpace=wrap;html=1;" vertex="1" parent="1">
          <mxGeometry x="260" y="140" width="100" height="40" as="geometry" />
        </mxCell>
        <mxCell id="98cig-gm82J87M5kQn7e-16" style="edgeStyle=orthogonalEdgeStyle;curved=1;rounded=0;orthogonalLoop=1;jettySize=auto;html=1;exitX=1;exitY=0.5;exitDx=0;exitDy=0;entryX=0;entryY=0.5;entryDx=0;entryDy=0;" edge="1" parent="1" source="98cig-gm82J87M5kQn7e-17" target="98cig-gm82J87M5kQn7e-27">
          <mxGeometry relative="1" as="geometry" />
        </mxCell>
        <mxCell id="98cig-gm82J87M5kQn7e-17" value="duration time, notify webhook url and etc." style="rounded=0;whiteSpace=wrap;html=1;" vertex="1" parent="1">
          <mxGeometry x="400" y="140" width="100" height="40" as="geometry" />
        </mxCell>
        <mxCell id="98cig-gm82J87M5kQn7e-18" value="start precheck program" style="rounded=0;whiteSpace=wrap;html=1;" vertex="1" parent="1">
          <mxGeometry x="180" y="300" width="100" height="40" as="geometry" />
        </mxCell>
        <mxCell id="98cig-gm82J87M5kQn7e-19" style="edgeStyle=orthogonalEdgeStyle;curved=1;rounded=0;orthogonalLoop=1;jettySize=auto;html=1;exitX=0.76;exitY=0.75;exitDx=0;exitDy=0;exitPerimeter=0;entryX=0;entryY=0.5;entryDx=0;entryDy=0;" edge="1" parent="1" source="98cig-gm82J87M5kQn7e-23" target="98cig-gm82J87M5kQn7e-25">
          <mxGeometry relative="1" as="geometry">
            <Array as="points">
              <mxPoint x="396" y="360" />
            </Array>
          </mxGeometry>
        </mxCell>
        <mxCell id="98cig-gm82J87M5kQn7e-20" value="no" style="edgeLabel;html=1;align=center;verticalAlign=middle;resizable=0;points=[];" vertex="1" connectable="0" parent="98cig-gm82J87M5kQn7e-19">
          <mxGeometry x="0.1429" y="2" relative="1" as="geometry">
            <mxPoint as="offset" />
          </mxGeometry>
        </mxCell>
        <mxCell id="98cig-gm82J87M5kQn7e-21" style="edgeStyle=orthogonalEdgeStyle;curved=1;rounded=0;orthogonalLoop=1;jettySize=auto;html=1;exitX=0.78;exitY=0.25;exitDx=0;exitDy=0;exitPerimeter=0;entryX=0;entryY=0.5;entryDx=0;entryDy=0;" edge="1" parent="1" source="98cig-gm82J87M5kQn7e-23" target="98cig-gm82J87M5kQn7e-24">
          <mxGeometry relative="1" as="geometry">
            <Array as="points">
              <mxPoint x="398" y="280" />
            </Array>
          </mxGeometry>
        </mxCell>
        <mxCell id="98cig-gm82J87M5kQn7e-22" value="yes" style="edgeLabel;html=1;align=center;verticalAlign=middle;resizable=0;points=[];" vertex="1" connectable="0" parent="98cig-gm82J87M5kQn7e-21">
          <mxGeometry x="0.0976" y="-3" relative="1" as="geometry">
            <mxPoint as="offset" />
          </mxGeometry>
        </mxCell>
        <mxCell id="98cig-gm82J87M5kQn7e-23" value="cluster healthy" style="strokeWidth=2;html=1;shape=mxgraph.flowchart.decision;whiteSpace=wrap;" vertex="1" parent="1">
          <mxGeometry x="320" y="280" width="100" height="80" as="geometry" />
        </mxCell>
        <mxCell id="98cig-gm82J87M5kQn7e-24" value="start testing workflow" style="rounded=0;whiteSpace=wrap;html=1;" vertex="1" parent="1">
          <mxGeometry x="460" y="260" width="100" height="40" as="geometry" />
        </mxCell>
        <mxCell id="98cig-gm82J87M5kQn7e-25" value="stop testing workflow" style="rounded=0;whiteSpace=wrap;html=1;" vertex="1" parent="1">
          <mxGeometry x="460" y="340" width="100" height="40" as="geometry" />
        </mxCell>
        <mxCell id="98cig-gm82J87M5kQn7e-26" style="edgeStyle=orthogonalEdgeStyle;curved=1;rounded=0;orthogonalLoop=1;jettySize=auto;html=1;exitX=1;exitY=0.5;exitDx=0;exitDy=0;entryX=0;entryY=0.5;entryDx=0;entryDy=0;entryPerimeter=0;" edge="1" parent="1" source="98cig-gm82J87M5kQn7e-18" target="98cig-gm82J87M5kQn7e-23">
          <mxGeometry relative="1" as="geometry" />
        </mxCell>
        <mxCell id="98cig-gm82J87M5kQn7e-27" value="start precheck" style="rounded=0;whiteSpace=wrap;html=1;" vertex="1" parent="1">
          <mxGeometry x="540" y="140" width="100" height="40" as="geometry" />
        </mxCell>
        <mxCell id="98cig-gm82J87M5kQn7e-28" style="edgeStyle=orthogonalEdgeStyle;curved=1;rounded=0;orthogonalLoop=1;jettySize=auto;html=1;exitX=0.86;exitY=0.025;exitDx=0;exitDy=0;entryX=0;entryY=0.5;entryDx=0;entryDy=0;exitPerimeter=0;" edge="1" parent="1" source="98cig-gm82J87M5kQn7e-32" target="98cig-gm82J87M5kQn7e-33">
          <mxGeometry relative="1" as="geometry" />
        </mxCell>
        <mxCell id="98cig-gm82J87M5kQn7e-29" value="Built-In" style="edgeLabel;html=1;align=center;verticalAlign=middle;resizable=0;points=[];" vertex="1" connectable="0" parent="98cig-gm82J87M5kQn7e-28">
          <mxGeometry x="0.2" y="-2" relative="1" as="geometry">
            <mxPoint as="offset" />
          </mxGeometry>
        </mxCell>
        <mxCell id="98cig-gm82J87M5kQn7e-30" style="edgeStyle=orthogonalEdgeStyle;curved=1;rounded=0;orthogonalLoop=1;jettySize=auto;html=1;exitX=0.86;exitY=1;exitDx=0;exitDy=0;entryX=0;entryY=0.5;entryDx=0;entryDy=0;exitPerimeter=0;" edge="1" parent="1" source="98cig-gm82J87M5kQn7e-32" target="98cig-gm82J87M5kQn7e-34">
          <mxGeometry relative="1" as="geometry" />
        </mxCell>
        <mxCell id="98cig-gm82J87M5kQn7e-31" value="User-Defined" style="edgeLabel;html=1;align=center;verticalAlign=middle;resizable=0;points=[];" vertex="1" connectable="0" parent="98cig-gm82J87M5kQn7e-30">
          <mxGeometry x="0.175" y="5" relative="1" as="geometry">
            <mxPoint as="offset" />
          </mxGeometry>
        </mxCell>
        <mxCell id="98cig-gm82J87M5kQn7e-32" value="start executing engine" style="rounded=0;whiteSpace=wrap;html=1;" vertex="1" parent="1">
          <mxGeometry x="40" y="506" width="100" height="40" as="geometry" />
        </mxCell>
        <mxCell id="98cig-gm82J87M5kQn7e-33" value="Built-In Scenarios" style="rounded=0;whiteSpace=wrap;html=1;" vertex="1" parent="1">
          <mxGeometry x="220" y="466" width="100" height="40" as="geometry" />
        </mxCell>
        <mxCell id="98cig-gm82J87M5kQn7e-34" value="User-Defined Scenarios" style="rounded=0;whiteSpace=wrap;html=1;" vertex="1" parent="1">
          <mxGeometry x="220" y="546" width="100" height="40" as="geometry" />
        </mxCell>
        <mxCell id="98cig-gm82J87M5kQn7e-35" value="Monitor checkpoint" style="rounded=0;whiteSpace=wrap;html=1;" vertex="1" parent="1">
          <mxGeometry x="380" y="506" width="100" height="40" as="geometry" />
        </mxCell>
        <mxCell id="98cig-gm82J87M5kQn7e-36" style="edgeStyle=orthogonalEdgeStyle;curved=1;rounded=0;orthogonalLoop=1;jettySize=auto;html=1;exitX=1;exitY=0.5;exitDx=0;exitDy=0;entryX=0.07;entryY=0;entryDx=0;entryDy=0;entryPerimeter=0;" edge="1" parent="1" source="98cig-gm82J87M5kQn7e-33" target="98cig-gm82J87M5kQn7e-35">
          <mxGeometry relative="1" as="geometry" />
        </mxCell>
        <mxCell id="98cig-gm82J87M5kQn7e-37" style="edgeStyle=orthogonalEdgeStyle;curved=1;rounded=0;orthogonalLoop=1;jettySize=auto;html=1;exitX=1;exitY=0.5;exitDx=0;exitDy=0;entryX=0.07;entryY=1.025;entryDx=0;entryDy=0;entryPerimeter=0;" edge="1" parent="1" source="98cig-gm82J87M5kQn7e-34" target="98cig-gm82J87M5kQn7e-35">
          <mxGeometry relative="1" as="geometry" />
        </mxCell>
        <mxCell id="98cig-gm82J87M5kQn7e-38" style="edgeStyle=orthogonalEdgeStyle;curved=1;rounded=0;orthogonalLoop=1;jettySize=auto;html=1;exitX=0.89;exitY=0.4;exitDx=0;exitDy=0;exitPerimeter=0;entryX=0;entryY=0.5;entryDx=0;entryDy=0;" edge="1" parent="1" source="98cig-gm82J87M5kQn7e-40" target="98cig-gm82J87M5kQn7e-42">
          <mxGeometry relative="1" as="geometry">
            <Array as="points">
              <mxPoint x="609" y="486" />
            </Array>
          </mxGeometry>
        </mxCell>
        <mxCell id="98cig-gm82J87M5kQn7e-58" value="yes" style="edgeLabel;html=1;align=center;verticalAlign=middle;resizable=0;points=[];" vertex="1" connectable="0" parent="98cig-gm82J87M5kQn7e-38">
          <mxGeometry x="0.1084" y="-6" relative="1" as="geometry">
            <mxPoint as="offset" />
          </mxGeometry>
        </mxCell>
        <mxCell id="98cig-gm82J87M5kQn7e-39" style="edgeStyle=orthogonalEdgeStyle;curved=1;rounded=0;orthogonalLoop=1;jettySize=auto;html=1;exitX=0.89;exitY=0.613;exitDx=0;exitDy=0;exitPerimeter=0;entryX=0;entryY=0.5;entryDx=0;entryDy=0;" edge="1" parent="1" source="98cig-gm82J87M5kQn7e-40" target="98cig-gm82J87M5kQn7e-43">
          <mxGeometry relative="1" as="geometry">
            <Array as="points">
              <mxPoint x="609" y="566" />
            </Array>
          </mxGeometry>
        </mxCell>
        <mxCell id="98cig-gm82J87M5kQn7e-59" value="no" style="edgeLabel;html=1;align=center;verticalAlign=middle;resizable=0;points=[];" vertex="1" connectable="0" parent="98cig-gm82J87M5kQn7e-39">
          <mxGeometry x="0.1947" y="9" relative="1" as="geometry">
            <mxPoint as="offset" />
          </mxGeometry>
        </mxCell>
        <mxCell id="98cig-gm82J87M5kQn7e-40" value="exception" style="strokeWidth=2;html=1;shape=mxgraph.flowchart.decision;whiteSpace=wrap;" vertex="1" parent="1">
          <mxGeometry x="520" y="486" width="100" height="80" as="geometry" />
        </mxCell>
        <mxCell id="98cig-gm82J87M5kQn7e-41" style="edgeStyle=orthogonalEdgeStyle;curved=1;rounded=0;orthogonalLoop=1;jettySize=auto;html=1;exitX=1;exitY=0.5;exitDx=0;exitDy=0;entryX=0;entryY=0.5;entryDx=0;entryDy=0;entryPerimeter=0;" edge="1" parent="1" source="98cig-gm82J87M5kQn7e-35" target="98cig-gm82J87M5kQn7e-40">
          <mxGeometry relative="1" as="geometry" />
        </mxCell>
        <mxCell id="98cig-gm82J87M5kQn7e-42" value="stop" style="rounded=0;whiteSpace=wrap;html=1;" vertex="1" parent="1">
          <mxGeometry x="660" y="466" width="60" height="40" as="geometry" />
        </mxCell>
        <mxCell id="98cig-gm82J87M5kQn7e-43" value="continue" style="rounded=0;whiteSpace=wrap;html=1;" vertex="1" parent="1">
          <mxGeometry x="660" y="546" width="60" height="40" as="geometry" />
        </mxCell>
        <mxCell id="98cig-gm82J87M5kQn7e-44" style="edgeStyle=orthogonalEdgeStyle;curved=1;rounded=0;orthogonalLoop=1;jettySize=auto;html=1;exitX=0.88;exitY=0;exitDx=0;exitDy=0;entryX=0;entryY=0.5;entryDx=0;entryDy=0;exitPerimeter=0;" edge="1" parent="1" source="98cig-gm82J87M5kQn7e-46" target="98cig-gm82J87M5kQn7e-47">
          <mxGeometry relative="1" as="geometry" />
        </mxCell>
        <mxCell id="98cig-gm82J87M5kQn7e-45" style="edgeStyle=orthogonalEdgeStyle;curved=1;rounded=0;orthogonalLoop=1;jettySize=auto;html=1;exitX=0.87;exitY=1.025;exitDx=0;exitDy=0;entryX=0;entryY=0.5;entryDx=0;entryDy=0;exitPerimeter=0;" edge="1" parent="1" source="98cig-gm82J87M5kQn7e-46" target="98cig-gm82J87M5kQn7e-49">
          <mxGeometry relative="1" as="geometry" />
        </mxCell>
        <mxCell id="98cig-gm82J87M5kQn7e-46" value="result" style="rounded=0;whiteSpace=wrap;html=1;" vertex="1" parent="1">
          <mxGeometry x="150" y="710" width="100" height="40" as="geometry" />
        </mxCell>
        <mxCell id="98cig-gm82J87M5kQn7e-47" value="store in argo workflow(CRD)" style="rounded=0;whiteSpace=wrap;html=1;" vertex="1" parent="1">
          <mxGeometry x="330" y="670" width="100" height="40" as="geometry" />
        </mxCell>
        <mxCell id="98cig-gm82J87M5kQn7e-48" style="edgeStyle=orthogonalEdgeStyle;curved=1;rounded=0;orthogonalLoop=1;jettySize=auto;html=1;exitX=1;exitY=0.5;exitDx=0;exitDy=0;" edge="1" parent="1" source="98cig-gm82J87M5kQn7e-49" target="98cig-gm82J87M5kQn7e-50">
          <mxGeometry relative="1" as="geometry" />
        </mxCell>
        <mxCell id="98cig-gm82J87M5kQn7e-49" value="User-Defined webhook" style="rounded=0;whiteSpace=wrap;html=1;" vertex="1" parent="1">
          <mxGeometry x="330" y="750" width="100" height="40" as="geometry" />
        </mxCell>
        <mxCell id="98cig-gm82J87M5kQn7e-50" value="wechat/Ding/email" style="rounded=0;whiteSpace=wrap;html=1;" vertex="1" parent="1">
          <mxGeometry x="510" y="750" width="100" height="40" as="geometry" />
        </mxCell>
        <mxCell id="98cig-gm82J87M5kQn7e-51" value="&lt;b&gt;step 1：chaos testing configuration&lt;/b&gt;" style="text;html=1;align=center;verticalAlign=middle;whiteSpace=wrap;rounded=0;" vertex="1" parent="1">
          <mxGeometry x="262.5" y="100" width="235" height="30" as="geometry" />
        </mxCell>
        <mxCell id="98cig-gm82J87M5kQn7e-52" value="&lt;b&gt;step2：precheck&lt;/b&gt;" style="text;html=1;align=center;verticalAlign=middle;whiteSpace=wrap;rounded=0;" vertex="1" parent="1">
          <mxGeometry x="295" y="240" width="170" height="30" as="geometry" />
        </mxCell>
        <mxCell id="98cig-gm82J87M5kQn7e-53" value="&lt;b&gt;step 3：execute chaos testing&lt;/b&gt;" style="text;html=1;align=center;verticalAlign=middle;whiteSpace=wrap;rounded=0;" vertex="1" parent="1">
          <mxGeometry x="287.5" y="440" width="185" height="30" as="geometry" />
        </mxCell>
        <mxCell id="98cig-gm82J87M5kQn7e-54" value="&lt;b&gt;step 4：result processing&lt;/b&gt;" style="text;html=1;align=center;verticalAlign=middle;whiteSpace=wrap;rounded=0;" vertex="1" parent="1">
          <mxGeometry x="295" y="640" width="170" height="30" as="geometry" />
        </mxCell>
        <mxCell id="98cig-gm82J87M5kQn7e-55" value="&lt;b&gt;&lt;font style=&quot;font-size: 9px;&quot;&gt;Trigger Notification&lt;/font&gt;&lt;/b&gt;" style="rounded=0;whiteSpace=wrap;html=1;" vertex="1" parent="1">
          <mxGeometry x="790" y="240" width="50" height="560" as="geometry" />
        </mxCell>
        <mxCell id="98cig-gm82J87M5kQn7e-56" style="edgeStyle=orthogonalEdgeStyle;shape=flexArrow;curved=1;rounded=0;orthogonalLoop=1;jettySize=auto;html=1;exitX=1;exitY=0.5;exitDx=0;exitDy=0;entryX=0.05;entryY=0.857;entryDx=0;entryDy=0;entryPerimeter=0;" edge="1" parent="1" source="98cig-gm82J87M5kQn7e-1" target="98cig-gm82J87M5kQn7e-55">
          <mxGeometry relative="1" as="geometry" />
        </mxCell>
        <mxCell id="98cig-gm82J87M5kQn7e-57" style="edgeStyle=orthogonalEdgeStyle;shape=flexArrow;curved=1;rounded=0;orthogonalLoop=1;jettySize=auto;html=1;exitX=1;exitY=0.5;exitDx=0;exitDy=0;entryX=0;entryY=0.143;entryDx=0;entryDy=0;entryPerimeter=0;" edge="1" parent="1" source="98cig-gm82J87M5kQn7e-4" target="98cig-gm82J87M5kQn7e-55">
          <mxGeometry relative="1" as="geometry" />
        </mxCell>
      </root>
    </mxGraphModel>
  </diagram>
</mxfile>
